<?xml version="1.0" encoding="UTF-8" standalone="no"?>
<!-- Generator: Adobe Illustrator 27.3.1, SVG Export Plug-In . SVG Version: 6.00 Build 0)  -->

<svg
   version="1.1"
   id="Camada_1"
   x="0px"
   y="0px"
   viewBox="0 0 480.3 272"
   style="enable-background:new 0 0 480.3 272;"
   xml:space="preserve"
   sodipodi:docname="de-coracao.svg"
   inkscape:version="1.2.2 (732a01da63, 2022-12-09)"
   xmlns:inkscape="http://www.inkscape.org/namespaces/inkscape"
   xmlns:sodipodi="http://sodipodi.sourceforge.net/DTD/sodipodi-0.dtd"
   xmlns="http://www.w3.org/2000/svg"
   xmlns:svg="http://www.w3.org/2000/svg"><defs
   id="defs57" /><sodipodi:namedview
   id="namedview55"
   pagecolor="#ffffff"
   bordercolor="#000000"
   borderopacity="0.25"
   inkscape:showpageshadow="2"
   inkscape:pageopacity="0.0"
   inkscape:pagecheckerboard="0"
   inkscape:deskcolor="#d1d1d1"
   showgrid="false"
   inkscape:zoom="1.2400365"
   inkscape:cx="353.2154"
   inkscape:cy="143.54416"
   inkscape:window-width="1280"
   inkscape:window-height="657"
   inkscape:window-x="-8"
   inkscape:window-y="-8"
   inkscape:window-maximized="1"
   inkscape:current-layer="g52" />
<style
   type="text/css"
   id="style2">
	.st0{fill:#EDD3D3;}
	.st1{fill:#E2B4AD;}
	.st2{fill:#F2F2F2;}
	.st3{fill:#FCE3DE;}
	.st4{fill:#E2B2AC;}
	.st5{fill:none;}
	.st6{font-family:'Forum';}
	.st7{font-size:70px;}
	.st8{fill:#FFFFFF;}
</style>
<g
   id="g52">
	<rect
   class="st0"
   width="480.3"
   height="272"
   id="rect4" />
	<g
   id="g14">
		<path
   class="st1"
   d="M137.4,127.3c0,9.5-26.2,17.3-58.5,17.3s-58.5-7.7-58.5-17.3S46.7,110,79,110S137.4,117.8,137.4,127.3z"
   id="path6" />
		<path
   class="st2"
   d="M141.4,125.2c0,9.2-28.1,16.7-62.8,16.7s-62.8-7.5-62.8-16.7s28.1-16.7,62.8-16.7S141.4,116,141.4,125.2z"
   id="path8" />
		<path
   class="st3"
   d="M141.7,123.9c0,9.2-28.1,16.7-62.8,16.7s-62.8-7.5-62.8-16.7s28.1-16.7,62.8-16.7S141.7,114.7,141.7,123.9z"
   id="path10" />
		<path
   class="st4"
   d="M121.7,124.8c0,4.8-18.9,8.6-42.1,8.6s-42.1-3.9-42.1-8.6s18.9-8.6,42.1-8.6S121.7,120.1,121.7,124.8z"
   id="path12" />
	</g>
	<rect
   x="41.6"
   y="78.7"
   class="st5"
   width="397"
   height="144.6"
   id="rect16" />
	<g
   aria-label="DE"
   transform="matrix(1 0 0 1 41.6403 125.2725)"
   id="text18"
   class="st6 st7"
   style="font-size:70px;font-family:Forum"><path
     d="m 3.08,0 h 12.6 C 31.99,0 40.25,-11.55 40.25,-22.89 40.25,-35 31.43,-46.2 16.59,-46.2 H 3.08 v 0.7 h 0.35 c 1.47,0 2.24,2.31 2.24,3.64 v 37.31 c 0,1.4 -0.84,3.85 -2.24,3.85 H 3.08 Z m 32.41,-21.84 c 0,13.23 -11.34,19.39 -21.42,19.39 h -3.71 v -41.3 h 3.57 c 12.39,0 21.56,9.94 21.56,21.91 z"
     id="path396" /><path
     d="m 46.269946,0 h 28.7 v -8.19 h -0.7 c 0,1.96 -1.68,5.74 -5.25,5.74 h -15.33 v -21.21 h 11.62 c 2.24,0 3.78,1.4 3.78,3.08 h 0.7 v -8.75 h -0.7 c 0,1.75 -1.61,3.29 -3.78,3.29 h -11.62 v -17.71 h 14.07 c 3.15,0 4.55,1.89 4.76,4.06 h 0.7 v -6.51 h -26.95 v 0.7 h 0.35 c 1.4,0 2.38,2.31 2.38,3.64 v 37.45 c 0,1.4 -0.98,3.71 -2.38,3.71 h -0.35 z"
     id="path398" /></g>
	<g
   aria-label="    CORAÇÃO"
   transform="matrix(1 0 0 1 41.6403 185.2725)"
   id="text20"
   class="st6 st7"
   style="font-size:70px;font-family:Forum"><path
     d="m 100.59006,-44.38 c 4.27,0 9.59,1.33 10.71,7.21 h 0.7 v -7.77 c -1.12,0 -2.24,-0.21 -3.64,-0.7 -1.96,-0.56 -4.41,-1.26 -7.49,-1.26 -17.149996,0 -25.339996,12.32 -25.339996,23.87 0,11.48 8.26,23.73 24.569996,23.73 3.29,0 6.23,-0.7 8.68,-1.33 1.89,-0.49 3.36,-0.91 4.76,-0.91 v -7.77 h -0.7 c -2.03,6.37 -8.26,7.49 -11.69,7.49 -11.689996,0 -20.859996,-10.78 -20.859996,-21.84 0,-9.8 6.51,-20.72 20.299996,-20.72 z"
     id="path381" /><path
     d="m 140,-46.9 c -15.33,0 -24.15,12.25 -24.15,24.29 0,12.04 8.82,23.31 23.17,23.31 13.44,0 24.5,-9.94 24.5,-23.94 0,-12.6 -9.03,-23.66 -23.52,-23.66 z m -0.07,45.15 c -11.13,0 -19.39,-11.55 -19.39,-21.84 0,-9.52 7,-20.86 18.55,-20.86 11.9,0 19.67,11.76 19.67,22.05 0,9.31 -6.3,20.09 -18.83,20.65 z"
     id="path383" /><path
     d="m 179.19998,-0.7 c -1.4,0 -2.24,-2.45 -2.24,-3.85 v -19.18 c 1.05,0.21 2.24,0.35 3.29,0.42 4.13,6.16 8.26,12.6 12.46,18.76 1.61,2.45 3.85,4.55 7.56,4.55 h 3.01 v -0.7 c -2.1,0 -3.92,-2.38 -5.25,-4.27 -2.45,-3.85 -4.97,-7.35 -7.42,-11.06 l -5.04,-7.7 c 5.95,-1.12 10.92,-4.62 10.92,-11.69 0,-7.07 -5.32,-10.78 -14.63,-10.78 h -12.18 v 0.7 h 0.35 c 1.4,0 2.24,2.31 2.24,3.64 v 37.31 c 0,1.4 -0.84,3.85 -2.24,3.85 h -0.35 V 0 h 9.87 v -0.7 z m -1.19,-43.12 c 8.05,0 13.65,1.61 13.65,8.68 0,7 -5.67,9.24 -9.52,9.24 -2.45,0 -4.06,-0.07 -4.83,-0.14 h -0.35 v -17.78 z"
     id="path385" /><path
     d="m 234.22005,0 h 10.36 v -0.7 h -0.35 c -1.89,0 -3.01,-2.17 -3.64,-4.06 l -15.68,-42.28 -16.03,42.7 c -0.77,1.96 -2.03,3.64 -3.22,3.64 h -0.35 V 0 h 7.77 v -0.7 h -0.35 c -0.77,0 -1.54,-0.77 -1.54,-1.96 0,-0.35 0.07,-0.7 0.21,-1.05 l 6.09,-16.73 h 12.25 l 6.3,17.01 c 0.14,0.42 0.21,0.84 0.21,1.19 0,1.05 -0.56,1.54 -1.68,1.54 h -0.35 z m -10.64,-37.45 5.39,14.63 h -10.78 z"
     id="path387" /><path
     d="m 273.28005,0.7 c 2.87,-0.21 5.81,-0.77 8.05,-1.33 1.89,-0.49 3.43,-0.91 4.83,-0.91 v -7.77 h -0.7 c -2.17,6.16 -8.4,7.28 -11.69,7.28 -11.69,0 -20.86,-10.36 -20.86,-21.63 0,-9.8 6.51,-20.72 20.3,-20.72 4.27,0 9.59,1.33 10.71,7.21 h 0.7 v -7.77 c -1.12,0 -2.24,-0.21 -3.64,-0.7 -1.96,-0.56 -4.41,-1.26 -7.49,-1.26 -17.15,0 -25.34,12.32 -25.34,23.87 0,11.27 7.63,22.89 22.89,23.66 l -2.24,3.64 c 3.43,0.49 5.39,2.1 5.39,3.71 0,1.96 -2.87,3.78 -6.44,3.78 h -0.77 v 0.56 c 0.28,0 0.7,0.07 0.98,0.07 0.56,0.07 1.12,0.14 1.75,0.14 5.04,0 7.91,-2.45 7.91,-4.9 0,-1.96 -1.82,-3.64 -6.02,-4.13 0.49,-0.98 1.05,-1.89 1.68,-2.8 z"
     id="path389" /><path
     d="m 318.92012,0 h 10.36 v -0.7 h -0.35 c -1.89,0 -3.01,-2.17 -3.64,-4.06 l -15.68,-42.28 -16.03,42.7 c -0.77,1.96 -2.03,3.64 -3.22,3.64 h -0.35 V 0 h 7.77 v -0.7 h -0.35 c -0.77,0 -1.54,-0.77 -1.54,-1.96 0,-0.35 0.07,-0.7 0.21,-1.05 l 6.09,-16.73 h 12.25 l 6.3,17.01 c 0.14,0.42 0.21,0.84 0.21,1.19 0,1.05 -0.56,1.54 -1.68,1.54 h -0.35 z m -10.64,-37.45 5.39,14.63 h -10.78 z m 9.17,-16.31 c -0.7,1.33 -1.75,2.45 -3.22,2.45 -2.31,0 -5.18,-2.73 -7.49,-2.73 -1.82,0 -3.71,1.54 -4.97,5.39 l 0.35,0.07 c 1.19,-1.68 2.03,-2.8 3.43,-2.8 2.52,0 5.95,2.8 8.26,2.8 1.96,0 2.8,-0.91 3.92,-5.11 z"
     id="path391" /><path
     d="m 357.07014,-46.9 c -15.33,0 -24.15,12.25 -24.15,24.29 0,12.04 8.82,23.31 23.17,23.31 13.44,0 24.5,-9.94 24.5,-23.94 0,-12.6 -9.03,-23.66 -23.52,-23.66 z m -0.07,45.15 c -11.13,0 -19.39,-11.55 -19.39,-21.84 0,-9.52 7,-20.86 18.55,-20.86 11.9,0 19.67,11.76 19.67,22.05 0,9.31 -6.3,20.09 -18.83,20.65 z"
     id="path393" /></g>
	<g
   id="g32">
		<path
   d="M271.3,204.5c1.1-1.7,2-3.3,3-4.8c1.3-1.9,2.9-3.3,5-4.2c1.9-0.8,3.7-0.9,5.3,0.5c1.6,1.4,2.1,3.2,1.5,5.2    c-0.4,1.3-1.1,2.6-1.9,3.8c-0.7,1.1-1.6,2.2-2.6,3.1c-3.1,3.1-6.3,6.3-9.4,9.3c-1.3,1.3-1.8,1.3-3.2,0.2    c-3.9-3.1-7.4-6.5-9.7-10.9c-1.3-2.4-2.2-5-1.7-7.8c0.4-2.7,2.7-4,5.3-3.2c1.9,0.6,3.4,1.8,4.6,3.4c1.1,1.4,2,3,3,4.5    C270.8,203.8,271,204.1,271.3,204.5z"
   id="path22" />
		<path
   d="M200.7,203.9c-0.4-1.1-0.8-2-1.1-3c-0.5-1.8,0.3-3.7,1.7-4.4c1.5-0.8,3.9-0.2,5.2,1.2c1.4,1.4,1.7,3.1,0.6,4.6    c-0.7,1-1.6,1.8-2.6,2.7c1.4,1.1,3.2,2,5,2.6c4.9,1.6,9.9,1.8,15,1.3c6.1-0.6,12.1-1.6,18.2-2.4c4.2-0.5,8.3-0.2,12.2,1.8    c0.3,0.1,0.6,0.2,0.7,0.4c0.3,0.4,0.8,1,0.7,1.3c-0.3,0.7-0.9,0.5-1.6,0.2c-1.9-0.7-3.8-1.6-5.8-1.9c-4-0.8-7.9,0.2-11.8,0.8    c-6.5,1.1-13.1,1.9-19.8,1.6c-5.3-0.3-10.3-1.4-14.5-4.9c-0.3-0.2-0.9-0.3-1.3-0.3c-3.2,0.2-6.1-0.6-8.8-2.1    c-1.1-0.6-2.3-1.3-3.4-2c-0.6-0.4-1-1.1-1.4-1.6c0.1-0.2,0.2-0.3,0.3-0.5c0.6,0.2,1.2,0.2,1.8,0.5c1.6,0.9,3.2,1.9,4.8,2.7    C196.8,203.5,198.7,204,200.7,203.9z M201.3,200c0,1.5,1,3.4,1.9,3.4c1,0,3-2.1,3-3.1c0-1.1-1.6-2.4-3-2.4    C202,197.9,201.3,198.6,201.3,200z"
   id="path24" />
		<path
   d="M335.8,205c-0.7-0.6-1.2-1-1.7-1.5c-1.6-1.4-2.1-3.2-1.3-4.7c0.9-1.8,3.1-3,5.1-2.7s3.3,2.4,2.8,4.6c-0.2,1-0.7,2-1.2,3.2    c2.3,0.2,4.3-0.5,6.2-1.5c1.6-0.8,3.1-1.8,4.7-2.7c0.4-0.2,0.9,0,1.4,0c-0.2,0.5-0.2,1.1-0.5,1.4c-3.9,2.7-7.8,5-12.9,4.6    c-0.4,0-1,0.2-1.4,0.4c-4.1,3.2-8.8,4.4-13.8,4.7c-7.3,0.4-14.4-0.6-21.5-1.8c-4-0.7-7.9-1.4-11.9-0.4c-1.4,0.4-2.8,1-4.2,1.5    c-0.6,0.2-1.3,0.9-1.8,0c-0.5-1,0.4-1.2,1-1.6c4-2.2,8.2-2.6,12.6-2c5,0.7,10,1.6,15,2.1c5.6,0.7,11.1,0.8,16.7-0.6    C331.5,207.5,333.6,206.5,335.8,205z M339,200c0-1.4-0.6-2.1-1.8-2.1c-1.4,0-2.9,1.2-3,2.4c0,1.1,1.8,3.1,2.9,3.1    C338,203.5,339,201.5,339,200z"
   id="path26" />
		
		
	</g>
	<g
   id="g50">
		<path
   d="M423.6,54.2c0.4-1.5,0.6-2.7,1-3.9c0.6-2.1,1.6-4,3.4-5.3c1.6-1.1,3.4-1.1,5-0.2c1.6,0.9,2.3,2.4,2.6,4.3    c0.7,4.7-1.4,8.6-3,12.7c-1.4,3.6-3.4,6.9-5.6,10.1c-0.5,0.7-0.9,1.5-1.4,2.3c-0.3,0.5-0.7,0.6-1.1,0c-3.1-4-6.2-8-9.2-12    c-1.1-1.4-2.2-2.8-3-4.3c-0.6-1.1-0.9-2.4-1.1-3.6c-0.2-1-0.2-2.1-0.3-3.1c-0.2-1.7,0.3-3,1.7-3.9c2.4-1.6,4.4-1.5,6.7,0.5    c1.4,1.3,2.4,3.1,3.6,4.7C423,53,423.2,53.5,423.6,54.2z M425.4,72.8c0.2-0.4,0.5-0.7,0.6-1c2.6-5.4,5.3-10.8,7.7-16.4    c0.9-2,1.4-4.2,0.8-6.5c-0.3-1.3-1-2.3-2.4-2.9c-1.8-0.7-4,0.3-4.9,1.8c-0.8,1.3-1.5,2.6-1.9,3.9c-0.5,1.5-0.6,3.1-0.9,4.6    c-0.1,0.3-0.3,0.6-0.5,0.9c-0.3-0.2-0.7-0.4-0.8-0.8c-0.5-1-0.8-2-1.3-3c-1.2-2.3-2.6-4.3-5.1-5.3c-1.5-0.6-2.9-0.5-4,0.5    c-1.2,1-1.7,2.4-1.2,3.9c0.4,1.2,0.8,2.5,1.4,3.6C416.3,62.4,421.1,67.3,425.4,72.8z M433,59.5c-0.1,0-0.2-0.1-0.3-0.1    c-1.2,2.6-2.4,5.2-3.6,7.7c0.1,0,0.2,0.1,0.2,0.1C430.9,64.7,431.9,62.1,433,59.5z M414.3,60.3c0.1-0.1,0.3-0.2,0.4-0.3    c-0.8-1.3-1.7-2.6-2.5-3.9c-0.1,0.1-0.2,0.2-0.4,0.2C412.6,57.6,413.4,58.9,414.3,60.3z M424.8,73.7c-0.1-1.1-1.7-3.3-2.9-4    C422.8,71,423.8,72.3,424.8,73.7z M426.9,47c1-0.7,2.1-1.4,3.3-2.1C428.4,45.4,427.4,45.7,426.9,47z"
   id="path34" />
		<path
   d="M414.7,100.2c-3.1-2-6-4.1-9.1-5.9c-3-1.9-5.1-4.7-7.5-7.2c-1.8-1.9-2-4.1-0.7-6.4c0.7-1.3,1.8-1.8,3.3-1.7    c3.2,0.4,5.7,2.2,7.6,4.7c0.5,0.7,1,1.4,1.5,2.2c0.1,0,0.2-0.1,0.4-0.1c0-0.6,0-1.2,0-1.8c0.1-2.4,0.3-4.7,1.3-7    c0.1-0.1,0.1-0.2,0.2-0.4c0.9-1.7,2.1-3.2,4.2-3c2.2,0.2,3.6,1.5,4.5,3.6c0.8,2,0.8,4,0.2,6c-1.1,3.8-2.3,7.5-3.5,11.3    c-0.5,1.5-1.1,2.9-1.7,4.4C415.3,99.4,415,99.7,414.7,100.2z M413.8,98.9c0.3-1,0.6-1.8,0.8-2.5c1.6-4.7,3.3-9.4,4.9-14.1    c0.5-1.6,0.7-3.2,0.2-4.9c-0.5-1.6-1.8-2.9-3.3-2.9c-1.6,0-2.6,0.9-3.2,2.3c-1.2,2.6-1.6,5.3-2,8.1c-0.2,0.9-0.3,1.8-0.5,2.8    c-0.2,0.1-0.3,0.1-0.5,0.2c-1.5-1.6-2.9-3.4-4.6-4.9c-1.6-1.5-3.6-2.4-5.9-2.3c-1.6,0.1-2.5,1-2.3,2.6c0,0.5,0.2,1.1,0.4,1.5    c1,1.9,2.2,3.6,4,4.8c1.2,0.8,2.3,1.7,3.4,2.6C408.1,94.4,410.9,96.6,413.8,98.9z M418.8,88c-0.1,0-0.2-0.1-0.3-0.1    c-1.3,3.5-2.6,7-3.9,10.5c0.2,0.1,0.4,0.1,0.5,0.2C416.4,95,417.6,91.5,418.8,88z"
   id="path36" />
		<path
   d="M403.5,49.9c-2.4-2.2-4.7-4.1-6.8-6.2c-2.5-2.6-4.9-5.3-7.3-8.1c-1.6-1.8-1.4-4-1.2-6.2c0.1-1,1.1-1.7,2.1-1.7    c3.3,0.1,5.9,1.8,8.4,3.8c0.8,0.7,1.5,1.6,2.3,2.6c0.1-0.6,0.2-1.2,0.4-1.7c0.7-2.8,1.8-5.3,4.3-7c1.5-1.1,3.3-1,5-1    c1,0,1.6,1,1.9,1.9c0.7,1.8,0.6,3.6,0.1,5.3c-1.2,4.3-2.9,8.4-5.4,12c-1.1,1.5-1.9,3.2-2.9,4.8C404.2,48.8,403.9,49.2,403.5,49.9z     M401.4,35.8c-0.1,0-0.2,0-0.3,0c-0.2-0.3-0.3-0.6-0.5-1c-1.8-3.1-4.5-4.9-7.9-5.7c-2.3-0.5-3.5,0.6-3.3,3    c0.1,1.9,1.1,3.5,2.2,4.9c3.3,4.1,7,7.8,10.9,11.2c1,0.9,1.1,0.8,1.6-0.3c2.3-4.9,4.6-9.8,6.9-14.6c0.9-1.9,1.5-3.8,1.4-5.9    c-0.1-1.7-1.6-2.8-3.2-2.5c-1.3,0.3-2.4,0.9-3.2,1.9c-2,2.2-3,5-3.9,7.8C401.7,34.9,401.5,35.3,401.4,35.8z"
   id="path38" />
		<path
   class="st8"
   d="M433,59.5c-1,2.7-2.1,5.3-3.6,7.7c-0.1,0-0.2-0.1-0.2-0.1c1.2-2.6,2.4-5.2,3.6-7.7    C432.8,59.4,432.9,59.4,433,59.5z"
   id="path40" />
		<path
   class="st8"
   d="M414.3,60.3c-0.8-1.3-1.7-2.6-2.5-3.9c0.1-0.1,0.2-0.2,0.4-0.2c0.8,1.3,1.7,2.6,2.5,3.9    C414.5,60.1,414.4,60.2,414.3,60.3z"
   id="path42" />
		<path
   class="st8"
   d="M424.8,73.7c-1-1.4-2-2.7-2.9-4C423.1,70.4,424.7,72.6,424.8,73.7z"
   id="path44" />
		<path
   class="st8"
   d="M426.9,47c0.5-1.2,1.5-1.6,3.3-2.1C429,45.6,427.9,46.3,426.9,47z"
   id="path46" />
		<path
   class="st8"
   d="M418.8,88c-1.2,3.5-2.5,7-3.7,10.5c-0.2-0.1-0.4-0.1-0.5-0.2c1.3-3.5,2.6-7,3.9-10.5    C418.6,87.9,418.7,87.9,418.8,88z"
   id="path48" />
	</g>
</g>
</svg>
