<?xml version="1.0" encoding="utf-8"?>
<!-- Generator: Adobe Illustrator 27.3.1, SVG Export Plug-In . SVG Version: 6.00 Build 0)  -->
<svg version="1.1" id="Camada_1" xmlns="http://www.w3.org/2000/svg" xmlns:xlink="http://www.w3.org/1999/xlink" x="0px" y="0px"
	 viewBox="0 0 365.7 285.7" style="enable-background:new 0 0 365.7 285.7;" xml:space="preserve">
<g>
	<path d="M182.9,41c-53.5,0-107,0-160.5,0c-5.6,0-10.9-1.1-15.3-4.9c-6.5-5.6-8.8-14.3-6.1-22.3C4,5.6,11.4,0.3,20.5,0
		C23,0,25.5,0,28.1,0C133,0,237.9,0,342.8,0c5.6,0,10.9,0.9,15.4,4.6c6.6,5.4,9,14.1,6.4,22.2c-2.7,8.3-9.9,13.6-18.8,14.1
		c-1.2,0.1-2.4,0-3.6,0C289.1,41,236,41,182.9,41z"/>
	<path d="M182.8,285.7c-53.4,0-106.8,0-160.2,0c-5.7,0-11-1.1-15.5-5c-6.5-5.7-8.8-14.3-5.9-22.3c2.9-8.1,10.1-13.3,19.1-13.6
		c2.3-0.1,4.6,0,6.9,0c105.2,0,210.3,0,315.5,0.1c3.4,0,7,0.4,10.2,1.6c9.7,3.5,13.6,13.3,12.6,20.6c-1.6,11.2-9.2,18.1-19.8,18.7
		c-1.1,0.1-2.2,0-3.3,0C289.2,285.7,236,285.7,182.8,285.7z"/>
	<path d="M182.6,163.3c-53.3,0-106.7,0-160,0c-5.7,0-11-1.1-15.5-4.9c-6.6-5.7-8.8-14.2-5.9-22.5c2.8-8,10-13.1,19-13.4
		c2.8-0.1,5.6,0,8.3,0c104.8,0,209.5,0,314.3,0c5.6,0,10.9,1,15.4,4.7c6.5,5.4,9,14.3,6.3,22.2c-2.8,8.3-9.9,13.6-18.8,14
		c-1.1,0.1-2.2,0-3.3,0C289.1,163.3,235.9,163.3,182.6,163.3z"/>
</g>
</svg>
