<?xml version="1.0" encoding="utf-8"?>
<!-- Generator: Adobe Illustrator 27.3.1, SVG Export Plug-In . SVG Version: 6.00 Build 0)  -->
<svg version="1.1" id="Camada_1" xmlns="http://www.w3.org/2000/svg" xmlns:xlink="http://www.w3.org/1999/xlink" x="0px" y="0px"
	 viewBox="0 0 580.4 153.6" style="enable-background:new 0 0 580.4 153.6;" xml:space="preserve">
<style type="text/css">
	.st0{fill:#273269;}
	.st1{fill:#51B3E6;}
	.st2{fill:#FFFFFF;}
</style>
<g>
	<path class="st0" d="M118,3.5c-1.1,0-2.2,0.1-3.4,0.1c-0.3,0-0.6,0-1,0c0,0.1,0,0.1,0,0.2c0.8,0,1.6,0,2.4,0
		c5.1,0,10.2,0.6,15.3,1.4c3.3,0.5,6.5,1.1,9.7,1.7c1.8,0.3,3.6,0.8,5.4,1.3c4.5,1.2,8.9,2.5,13.2,4.1c5.5,2.1,10.8,4.5,16,7.3
		c6.3,3.5,12.3,7.6,17.6,12.6c2.2,2.1,4.3,4.2,6.3,6.5c3.5,4,6.2,8.5,8.4,13.3c1.7,3.8,3,7.8,3.6,11.9c0.7,4.2,0.9,8.5,0.6,12.8
		c-0.2,3.1-0.5,6.2-1.1,9.2c-0.7,3.5-1.8,6.9-3.1,10.2c-1.1,2.7-2.4,5.2-3.8,7.7c-1.7,2.9-3.7,5.7-5.8,8.4c-2.8,3.4-5.8,6.5-9.2,9.3
		c-4.8,4-9.8,7.5-15.4,10.2c-3.3,1.6-6.7,3.3-10.1,4.7c-2.8,1.2-5.8,2.2-8.7,3.1c-3,1-6,1.8-9,2.6c-3.4,0.8-6.9,1.5-10.4,2.1
		c-2.6,0.4-5.3,0.6-7.9,1c-3.5,0.5-7,0.7-10.6,0.8c-4.6,0.2-9.2,0.2-13.8,0.1c-3.2,0-6.4-0.3-9.6-0.5c-1.2-0.1-2.5-0.3-3.7-0.4
		c-2.7-0.3-5.4-0.6-8.1-1c-3.3-0.6-6.5-1.2-9.8-1.9c-2.2-0.5-4.4-1.2-6.5-1.8c-2.3-0.7-4.6-1.4-6.9-2.2c-2.1-0.8-4.3-1.5-6.4-2.5
		c-3.2-1.5-6.5-3-9.6-4.7c-2.9-1.6-5.7-3.4-8.4-5.2c-5.9-3.9-11-8.8-15.5-14.2c-3.8-4.7-6.9-9.8-9.2-15.4c-1.4-3.4-2.5-7-3.2-10.7
		c-0.4-2.1-0.7-4.3-0.9-6.4c-0.1-0.9-0.1-1.8-0.1-2.7c0-3.8-0.1-7.6,0.4-11.3c0.4-2.8,1.1-5.6,2-8.3c1.1-3.2,2.4-6.3,4.1-9.2
		c3-5.3,6.8-10,11.2-14.3c4.5-4.3,9.4-8,14.6-11.3c5.8-3.6,11.9-6.6,18.3-9c3-1.2,6.1-2.2,9.2-3.1c3-0.9,6-1.7,9-2.4
		c2.2-0.5,4.4-1,6.6-1.4C84.2,5.5,87.6,5,91,4.6c3.7-0.5,7.4-0.8,11.1-0.8c0.2,0,0.4,0,0.7-0.1c-1.1-0.1-2.2-0.1-3.3-0.2
		C105.6,3.5,111.8,3.5,118,3.5z M9.4,66.8c0,0.5,0,0.8,0,1.2c-0.3,3.5,0,7,0.6,10.4c0.3,1.6,0.7,3.2,1.2,4.8
		c0.7,2.1,1.4,4.3,2.5,6.2c1.4,2.6,3,5.2,4.7,7.7c2.8,4.2,6.3,7.8,10.1,11.1c4.4,3.9,9.2,7.2,14.3,10.1c3.5,2,7.1,3.8,10.8,5.4
		c4.7,2,9.5,3.8,14.5,5.1c3.4,0.9,6.8,1.8,10.2,2.5c2.5,0.6,5.1,1,7.7,1.3c3.1,0.5,6.2,0.9,9.4,1.2c3.1,0.3,6.2,0.4,9.3,0.5
		c6.7,0.1,13.4,0.1,20-0.8c2.9-0.4,5.8-0.5,8.6-1c3.4-0.6,6.8-1.3,10.2-2c1.6-0.3,3.2-0.8,4.8-1.3c2-0.5,3.9-1.1,5.8-1.7
		c2.2-0.7,4.4-1.5,6.5-2.4c3.4-1.4,6.8-2.9,10.1-4.5c4.3-2.1,8.5-4.6,12.4-7.5c4.1-2.9,8-6.2,11.4-9.9c4-4.3,7.4-9,9.9-14.4
		c1.4-3,2.5-6.1,3.1-9.4c0.7-3.3,1-6.7,0.8-10.1c0-0.5,0-1,0-1.7c-0.5,0.2-0.8,0.3-1.2,0.4c-2.1,0.5-4.3,1-6.4,1.6
		c-1.6,0.4-3.3,0.9-4.9,1.3c-2.1,0.6-4.2,1.2-6.3,1.8c-1.1,0.3-2.2,0.7-3.3,1c-1.1,0.3-2.1,0.6-3.2,0.9c-1.6,0.5-3.2,1.1-4.8,1.7
		c-2.9,1.1-5.8,2.1-8.7,3.2c-0.7,0.2-1.3,0.5-2,0.8c-0.7,0.3-0.6,0.3-0.3,1c1.4,2.7,1.4,5.5,0.1,8.2c-1.6,3.1-4.4,4.6-7.6,5.5
		c-1.1,0.3-2.4,0.1-3.6,0.1c-0.5,0-0.7,0-0.7,0.6c-0.1,1.3-0.4,2.7-1,3.9c-1.1,1.9-2.6,3.4-4.5,4.4c-1.3,0.7-2.7,1.2-4.1,1.6
		c-1,0.2-2.2,0.1-3.2,0c-0.5,0-0.9,0-0.9,0.7c0,0.2-0.1,0.4-0.2,0.6c-1.2,2.6-3.3,4.3-5.7,5.5c-2.2,1.1-4.6,1.1-6.9,0.6
		c-0.4-0.1-0.6,0-0.8,0.3c-1.2,1.9-3.1,2.8-5.1,3.3c-2.2,0.6-4.4,0.5-6.6,0c-2.2-0.5-4.3-1.3-6.2-2.3c-0.4-0.2-0.7-0.2-1,0.1
		c-3,2.8-6.5,3.7-10.5,2.9c-3.7-0.8-6.4-2.9-8.1-6.3c-0.3-0.6-0.6-0.7-1.1-0.6c-2.4,0.6-4.7,0.3-6.9-0.7c-2.3-1.1-4.2-2.6-5.3-4.9
		c-0.2-0.5-0.6-0.6-1.1-0.5c-4.2,0.5-7.6-1.1-10.3-4.2c-1.2-1.4-2-3-2.3-4.9c-0.1,0-0.3,0-0.4,0c-0.1,0-0.3,0-0.4,0
		c-1.9,0.3-3.7-0.2-5.4-1c-0.5-0.2-0.9-0.5-1.3-0.8c-1.8-1.3-3.2-3-3.8-5.2c-0.7-2.1-0.7-4.2,0.1-6.3c0.2-0.5,0.1-0.8-0.3-1
		c-1.2-0.7-2.4-1.6-3.7-2.2c-3.2-1.4-6.3-2.9-9.6-4.1c-2.8-1.1-5.6-1.9-8.5-2.8c-1.6-0.5-3.3-0.9-4.9-1.4c-1.8-0.5-3.6-0.9-5.3-1.4
		c-1.5-0.4-3-0.6-4.6-1c-1.5-0.4-3-0.8-4.5-1.1C10.4,66.9,10,66.9,9.4,66.8z M83.7,37.7c-0.4,0.1-0.7,0.1-1,0.2
		c-1.7,0.4-3.4,0.9-5.2,1.4c-1.2,0.3-2.3,0.5-3.5,0.9c-1.7,0.6-3.4,0.7-5.1,0.8c-1.7,0-3.4-0.2-5.1-0.2c-2,0-3.9-0.6-5.9-1
		c-1.4-0.3-2.7-0.7-4-1c-1.4-0.3-2.7-0.7-4.1-1.1c-2.1-0.6-4.1-1.2-6.1-1.9c-2.4-0.8-4.7-1.6-7.1-2.4c-1.6-0.5-3.1-1.1-4.7-1.7
		c-0.6-0.2-1-0.1-1.5,0.3c-2.8,2.3-5.4,4.8-7.8,7.4c-4,4.2-7.2,9-9.6,14.3c-1.3,2.8-2.2,5.7-2.8,8.7c-0.1,0.4,0,0.5,0.4,0.6
		c0.4,0,0.8,0.1,1.2,0.2c2.2,0.6,4.3,1.2,6.5,1.8c1.8,0.5,3.6,0.8,5.4,1.3c3.3,0.9,6.7,1.9,10,2.9c4.7,1.4,9.4,3.2,13.9,5.3
		c2.3,1.1,4.6,2.2,6.7,3.8c0.3,0.2,0.5,0.2,0.8,0c1.4-1.3,3.1-2.2,4.9-2.5c1.2-0.2,2.4-0.2,3.6,0c2.2,0.4,4,1.5,5.5,3.1
		c0.4,0.4,0.7,0.4,1.2,0.1c0.8-0.5,1.6-1,2.5-1.2c2.2-0.7,4.4-0.7,6.6-0.1c2.8,0.7,5,2.2,6.5,4.7c0.2,0.3,0.3,0.5,0.8,0.4
		c1.6-0.5,3.2-0.6,4.9-0.4c3,0.4,5.5,1.6,7.3,4.1c1.6,2.1,2.2,4.6,1.9,7.2c0,0.4,0,0.6,0.5,0.7c1.7,0,3.4,0.4,5,1.2
		c3.1,1.5,5.2,3.9,6.2,7.1c0.9,2.9,0.7,5.7-0.6,8.5c0.2,0.1,0.4,0.3,0.7,0.4c0.9,0.4,1.7,0.7,2.6,1.1c2,0.7,4.1,1.2,6.3,0.8
		c1.3-0.2,2.6-0.7,3.5-1.7c0.2-0.3,0.3-0.5,0-0.7c-0.7-0.8-1.3-1.5-2-2.3c-1.9-2.1-3.9-4.2-5.8-6.4c-0.3-0.3-0.6-0.7-0.8-1
		c-0.1-0.3-0.2-0.9,0-1.1c0.2-0.3,0.7-0.3,1.1-0.4c0.3,0,0.6,0.2,0.8,0.3c0.4,0.2,0.7,0.5,1.1,0.8c2.9,2.7,5.7,5.4,8.6,8.1
		c0.2,0.2,0.5,0.4,0.7,0.5c2.9,1.3,6,0.3,7.9-1.7c1.4-1.5,1.5-3,0.4-4.7c-0.2-0.3-0.5-0.7-0.8-1c-3-3.4-6.1-6.8-9.1-10.2
		c-0.3-0.3-0.5-0.7-0.6-1c-0.1-0.3,0.1-0.8,0.3-1c0.2-0.2,0.7-0.2,1-0.1c0.5,0.2,1,0.5,1.4,0.9c1.8,1.6,3.6,3.2,5.3,4.8
		c1.9,1.7,3.7,3.5,5.5,5.3c1.4,1.3,3.1,1.8,4.9,1.6c2-0.2,3.5-1.2,4.9-2.5c2.3-2.2,2.4-5.2,0.2-7.5c-2.3-2.4-4.6-4.8-7-7.1
		c-2-2-3.9-3.9-5.9-5.9c-0.4-0.4-0.8-0.9-1-1.4c-0.2-0.4-0.2-0.9,0.3-1.2c0.4-0.3,0.9-0.3,1.4,0c0.3,0.2,0.7,0.5,1,0.8
		c4.9,4.3,9.8,8.7,14.6,13c1.3,1.2,2.9,1.5,4.5,1.5c1.7,0,3.2-0.8,4.6-1.9c0.9-0.7,1.5-1.6,1.8-2.8c0.4-2.2-0.3-4.1-2-5.5
		c-3.7-3.3-7.4-6.5-11.1-9.8c-4.6-4-9.3-8-13.9-11.9c-3-2.5-6-5-9.1-7.6c-1.8-1.5-3.7-3.1-5.6-4.5c-1.9-1.5-4-2.8-6.3-3.4
		c-2.8-0.7-5.5-0.4-8.1,0.8c-2.6,1.2-5,2.8-7.2,4.5c-3,2.3-5.9,4.6-9.1,6.6c-1.9,1.1-3.8,2.1-6,2.3c-3.7,0.4-7.3-0.2-10.6-1.8
		c-0.6-0.3-1.2-0.7-1.7-1.1c-2.3-1.9-2.4-4.5-0.4-6.7c1.5-1.6,3-3.2,4.4-4.7c1.9-2,3.7-4,5.6-5.9C83.4,38.1,83.5,38,83.7,37.7z
		 M113.2,28.6c-1.5,0.1-3,0.1-4.4,0.3c-2.1,0.3-4.1,0.7-6.1,1.3c-1.7,0.5-3.4,1.1-5,1.8c-2.9,1.4-5.5,3.3-7.8,5.5
		c-2.7,2.6-5.4,5.3-8,8c-1.6,1.7-3.2,3.4-4.8,5.1c-1.5,1.5-1.3,2.3,0.6,3.1c0,0,0,0,0.1,0c1.4,0.7,3,0.9,4.5,1
		c1.7,0.1,3.4,0.1,5-0.5c1.9-0.7,3.6-1.6,5.2-2.8c3.3-2.5,6.5-5,9.8-7.4c1.3-1,2.7-1.8,4.1-2.5c1.9-0.9,3.9-1.5,6-1.7
		c1.8-0.2,3.5,0,5.1,0.5c2.8,0.9,5.3,2.5,7.5,4.3c4.6,3.7,9.2,7.5,13.7,11.3c4.6,3.8,9.1,7.7,13.6,11.6c3.7,3.2,7.4,6.4,11.1,9.7
		c0.6,0.5,1.1,0.6,1.8,0.3c0.9-0.4,1.8-0.9,2.7-1.2c2-0.8,4.1-1.6,6.1-2.3c2.8-1.1,5.6-2.1,8.5-3.1c2.6-0.9,5.2-1.6,7.8-2.4
		c2.9-0.9,5.7-1.7,8.6-2.5c2.7-0.7,5.5-1.3,8.2-2c0.4-0.1,0.6-0.3,0.5-0.8c-0.4-2.3-1.1-4.5-1.8-6.7c-1.5-4.1-3.6-7.9-6.1-11.4
		c-3.1-4.5-7.1-8.3-11.2-11.9c-0.2-0.2-0.6-0.2-0.8-0.1c-0.7,0.2-1.3,0.5-2,0.8c-2.1,0.8-4.2,1.6-6.3,2.3c-1.9,0.7-3.9,1.3-5.9,1.8
		c-2,0.5-4.1,1-6.2,1.2c-2.9,0.3-5.8,0.5-8.7,0.5c-2.9,0-5.9-0.1-8.8-0.8c-1.7-0.4-3.5-0.6-5.2-1.1c-3.4-0.9-6.6-2.2-9.8-3.6
		c-1.8-0.8-3.6-1.7-5.5-2.3c-2.8-0.9-5.6-1.6-8.4-2.3C118.4,28.8,115.8,28.6,113.2,28.6z M34.9,28.4c0.2,0.1,0.2,0.2,0.2,0.2
		c2.1,0.8,4.2,1.6,6.4,2.3c2.5,0.8,5.1,1.6,7.7,2.3c2,0.6,4.1,1.2,6.1,1.7c3.2,0.8,6.4,1.5,9.6,1.9c3,0.4,6,0,8.9-0.7
		c2.3-0.6,4.6-1.3,6.9-1.8c2.3-0.5,4.7-0.8,7.1-1.2c0.7-0.1,1.3-0.3,1.8-0.7c3.3-2.6,6.9-4.6,10.9-5.9c2.3-0.7,4.6-1.2,7-1.6
		c3-0.4,5.9-0.6,8.9-0.3c4,0.4,8,1.2,11.8,2.5c2.7,1,5.3,1.9,7.9,3.1c3.3,1.4,6.6,2.7,10,3.5c3.6,0.9,7.3,1.4,11,1.6
		c4,0.3,7.9-0.2,11.8-0.9c4.6-0.8,9-2.2,13.4-3.9c0.7-0.3,1.5-0.6,2.3-1c-0.2-0.2-0.3-0.3-0.4-0.4c-2-1.3-4-2.7-6-4
		c-3.3-2.1-6.7-4-10.3-5.6c-3-1.4-6-2.6-9.1-3.8c-4.3-1.7-8.6-3-13.1-4c-2.3-0.5-4.7-1.2-7-1.6c-3.8-0.7-7.7-1.3-11.6-1.8
		c-1.8-0.3-3.5-0.4-5.3-0.6c-2.2-0.2-4.4-0.4-6.5-0.4c-4.8,0-9.6,0-14.4,0.1c-2.8,0.1-5.6,0.3-8.5,0.7c-3.5,0.4-6.9,0.9-10.4,1.5
		c-1.9,0.3-3.9,0.6-5.8,1.1c-2.6,0.6-5.2,1.2-7.7,2c-3.4,1-6.7,2.1-10,3.3c-3.6,1.3-7.1,2.7-10.5,4.4C44,22.8,40,25.2,36,27.6
		C35.7,27.9,35.3,28.1,34.9,28.4z M68.2,85.9c0-0.2-0.1-0.4-0.1-0.5c-0.1-1.1-0.3-2.1-0.8-3.1c-1.2-2.2-3.1-3.3-5.5-3.4
		c-1.7-0.1-3.3,0.7-4.6,1.9c-1,0.9-1.5,2.2-1.8,3.5c-0.3,1.8,0.3,3.4,1.4,4.8c1.5,1.8,4.2,2.9,6.6,2.2c1-0.3,1.8-0.9,2.6-1.5
		c0.2-0.1,0.6-0.3,0.7-0.2c0.2,0.1,0.3,0.4,0.4,0.7c0,0.4-0.1,0.8,0,1.2c0.1,1.2,0,2.5,0.3,3.7c0.6,2.1,2.1,3.6,4,4.7
		c1.8,1,3.7,1.2,5.6,0.4c0.7-0.3,1.3-0.7,2-1c0.7-0.3,1.1,0,1.1,0.7c0,0.4-0.1,0.9,0,1.3c0.1,0.7,0.2,1.6,0.6,2.2
		c1.5,2.2,3.6,3.4,6.2,3.6c1.7,0.2,3.1-0.6,4.3-1.7c0.4-0.4,0.9-0.6,1.4-0.4c0.5,0.2,0.4,0.7,0.4,1.1c0.1,1.2,0.3,2.5,1,3.5
		c1.3,1.9,2.9,3.4,5.2,4c1.2,0.3,2.5,0.3,3.7,0.1c1.7-0.3,3.2-1.2,4.4-2.6c2-2.4,2.7-5.2,1.6-8c-1.6-4.2-5.7-6.2-10.2-4.9
		c-0.5,0.1-1,0.3-1.5,0.4c-0.7,0.1-1-0.3-0.9-1c0-0.2,0.1-0.4,0.2-0.7c0.5-1.6,0.8-3.2,0.7-4.8c-0.1-2-0.8-3.7-2.4-5
		c-1-0.9-2.2-1.3-3.5-1.6c-1.3-0.2-2.7-0.3-3.9,0.4c-0.8,0.4-1.5,0.9-2.2,1.4C84.4,88,84,87.9,83.8,87c-0.2-0.7-0.3-1.4-0.5-2.1
		c-0.6-1.6-1.5-2.9-3.1-3.5c-3.1-1.2-6.1-1-8.8,1C70.1,83.3,69.1,84.6,68.2,85.9z"/>
	<path class="st1" d="M9.4,66.8c0.6,0.1,1,0.1,1.4,0.2c1.5,0.4,3,0.8,4.5,1.1c1.5,0.4,3,0.6,4.6,1c1.8,0.4,3.6,0.9,5.3,1.4
		c1.6,0.4,3.3,0.9,4.9,1.4c2.8,0.9,5.7,1.7,8.5,2.8c3.2,1.2,6.4,2.7,9.6,4.1c1.3,0.6,2.5,1.5,3.7,2.2c0.4,0.3,0.5,0.5,0.3,1
		c-0.8,2.1-0.8,4.2-0.1,6.3c0.7,2.2,2,3.9,3.8,5.2c0.4,0.3,0.9,0.5,1.3,0.8c1.7,0.8,3.5,1.3,5.4,1c0.1,0,0.3,0,0.4,0
		c0.1,0,0.3,0,0.4,0C64,97,64.8,98.7,66,100c2.7,3.1,6.1,4.8,10.3,4.2c0.5-0.1,0.8,0,1.1,0.5c1.1,2.3,3,3.8,5.3,4.9
		c2.2,1,4.5,1.3,6.9,0.7c0.6-0.1,0.9,0,1.1,0.6c1.7,3.4,4.4,5.5,8.1,6.3c3.9,0.8,7.5-0.1,10.5-2.9c0.3-0.3,0.6-0.4,1-0.1
		c2,1.1,4,1.9,6.2,2.3c2.2,0.5,4.4,0.5,6.6,0c2.1-0.5,4-1.4,5.1-3.3c0.2-0.3,0.4-0.3,0.8-0.3c2.4,0.5,4.7,0.5,6.9-0.6
		c2.5-1.2,4.6-2.9,5.7-5.5c0.1-0.2,0.2-0.4,0.2-0.6c0-0.6,0.4-0.7,0.9-0.7c1.1,0.1,2.2,0.2,3.2,0c1.4-0.3,2.8-0.9,4.1-1.6
		c1.9-1,3.5-2.4,4.5-4.4c0.7-1.2,0.9-2.5,1-3.9c0-0.6,0.3-0.6,0.7-0.6c1.2,0,2.4,0.2,3.6-0.1c3.2-0.8,6-2.3,7.6-5.5
		c1.4-2.7,1.3-5.5-0.1-8.2c-0.3-0.7-0.4-0.7,0.3-1c0.6-0.3,1.3-0.5,2-0.8c2.9-1.1,5.8-2.1,8.7-3.2c1.6-0.6,3.2-1.2,4.8-1.7
		c1-0.4,2.1-0.6,3.2-0.9c1.1-0.3,2.2-0.7,3.3-1c2.1-0.6,4.2-1.2,6.3-1.8c1.6-0.5,3.2-0.9,4.9-1.3c2.1-0.5,4.3-1,6.4-1.6
		c0.4-0.1,0.7-0.2,1.2-0.4c0,0.6,0,1.1,0,1.7c0.1,3.4-0.2,6.8-0.8,10.1c-0.7,3.2-1.7,6.4-3.1,9.4c-2.5,5.4-5.9,10.1-9.9,14.4
		c-3.4,3.7-7.3,7-11.4,9.9c-3.9,2.8-8,5.3-12.4,7.5c-3.3,1.6-6.7,3.1-10.1,4.5c-2.1,0.9-4.3,1.6-6.5,2.4c-1.9,0.6-3.9,1.2-5.8,1.7
		c-1.6,0.4-3.2,0.9-4.8,1.3c-3.4,0.7-6.8,1.5-10.2,2c-2.8,0.5-5.7,0.7-8.6,1c-6.7,0.8-13.3,0.9-20,0.8c-3.1-0.1-6.2-0.2-9.3-0.5
		c-3.1-0.3-6.3-0.7-9.4-1.2c-2.6-0.4-5.1-0.8-7.7-1.3c-3.4-0.8-6.8-1.6-10.2-2.5c-5-1.3-9.8-3.1-14.5-5.1c-3.7-1.6-7.3-3.4-10.8-5.4
		c-5.1-2.9-9.9-6.2-14.3-10.1c-3.8-3.3-7.3-6.9-10.1-11.1c-1.7-2.5-3.3-5-4.7-7.7c-1-2-1.7-4.1-2.5-6.2c-0.5-1.6-0.9-3.2-1.2-4.8
		C9.4,75,9.1,71.5,9.4,68C9.5,67.6,9.4,67.3,9.4,66.8z"/>
	<path class="st2" d="M83.7,37.7c-0.2,0.3-0.2,0.4-0.3,0.5c-1.9,2-3.7,4-5.6,5.9c-1.5,1.6-2.9,3.2-4.4,4.7c-2,2.1-1.9,4.8,0.4,6.7
		c0.5,0.4,1.1,0.8,1.7,1.1c3.4,1.6,6.9,2.2,10.6,1.8c2.2-0.3,4.1-1.2,6-2.3c3.2-1.9,6.1-4.3,9.1-6.6c2.3-1.7,4.7-3.3,7.2-4.5
		c2.6-1.2,5.3-1.5,8.1-0.8c2.4,0.6,4.4,1.9,6.3,3.4c1.9,1.5,3.7,3,5.6,4.5c3,2.5,6.1,5,9.1,7.6c4.7,4,9.3,7.9,13.9,11.9
		c3.7,3.2,7.4,6.5,11.1,9.8c1.6,1.5,2.4,3.3,2,5.5c-0.2,1.2-0.9,2.1-1.8,2.8c-1.3,1.1-2.8,1.8-4.6,1.9c-1.6,0-3.2-0.4-4.5-1.5
		c-4.9-4.4-9.8-8.7-14.6-13c-0.3-0.3-0.6-0.5-1-0.8c-0.5-0.3-0.9-0.3-1.4,0c-0.4,0.3-0.5,0.8-0.3,1.2c0.3,0.5,0.6,1,1,1.4
		c1.9,2,3.9,3.9,5.9,5.9c2.3,2.4,4.7,4.7,7,7.1c2.2,2.3,2.1,5.3-0.2,7.5c-1.4,1.3-3,2.3-4.9,2.5c-1.9,0.2-3.5-0.3-4.9-1.6
		c-1.9-1.7-3.7-3.5-5.5-5.3c-1.7-1.6-3.5-3.2-5.3-4.8c-0.4-0.4-0.9-0.7-1.4-0.9c-0.3-0.1-0.8-0.1-1,0.1c-0.2,0.2-0.3,0.7-0.3,1
		c0.1,0.4,0.3,0.7,0.6,1c3,3.4,6.1,6.8,9.1,10.2c0.3,0.3,0.6,0.6,0.8,1c1.1,1.7,1,3.2-0.4,4.7c-1.9,2-5,3-7.9,1.7
		c-0.3-0.1-0.5-0.3-0.7-0.5c-2.9-2.7-5.7-5.4-8.6-8.1c-0.3-0.3-0.7-0.6-1.1-0.8c-0.2-0.2-0.6-0.3-0.8-0.3c-0.4,0-0.9,0.1-1.1,0.4
		c-0.2,0.3-0.1,0.8,0,1.1c0.2,0.4,0.5,0.7,0.8,1c1.9,2.1,3.9,4.2,5.8,6.4c0.7,0.7,1.3,1.5,2,2.3c0.2,0.3,0.2,0.5,0,0.7
		c-0.9,1-2.2,1.5-3.5,1.7c-2.2,0.4-4.3,0-6.3-0.8c-0.9-0.3-1.8-0.7-2.6-1.1c-0.2-0.1-0.4-0.3-0.7-0.4c1.4-2.8,1.6-5.6,0.6-8.5
		c-1.1-3.2-3.1-5.6-6.2-7.1c-1.6-0.8-3.2-1.2-5-1.2c-0.5,0-0.5-0.3-0.5-0.7c0.2-2.6-0.4-5.1-1.9-7.2c-1.8-2.5-4.4-3.7-7.3-4.1
		c-1.6-0.2-3.3-0.1-4.9,0.4c-0.4,0.1-0.6-0.1-0.8-0.4c-1.5-2.5-3.7-4-6.5-4.7c-2.2-0.6-4.4-0.6-6.6,0.1c-0.9,0.3-1.7,0.8-2.5,1.2
		c-0.5,0.3-0.8,0.3-1.2-0.1c-1.5-1.6-3.3-2.7-5.5-3.1c-1.2-0.2-2.4-0.2-3.6,0c-1.9,0.3-3.5,1.2-4.9,2.5c-0.3,0.3-0.5,0.3-0.8,0
		c-2.1-1.5-4.4-2.7-6.7-3.8c-4.5-2.1-9.1-3.8-13.9-5.3c-3.3-1-6.7-1.9-10-2.9c-1.8-0.5-3.6-0.8-5.4-1.3c-2.2-0.6-4.3-1.2-6.5-1.8
		c-0.4-0.1-0.8-0.2-1.2-0.2c-0.4,0-0.5-0.2-0.4-0.6c0.6-3,1.5-5.9,2.8-8.7c2.4-5.3,5.6-10,9.6-14.3c2.5-2.6,5.1-5.1,7.8-7.4
		c0.4-0.4,0.9-0.5,1.5-0.3c1.6,0.6,3.1,1.2,4.7,1.7c2.4,0.8,4.7,1.6,7.1,2.4c2,0.7,4.1,1.3,6.1,1.9c1.3,0.4,2.7,0.7,4.1,1.1
		c1.3,0.3,2.7,0.7,4,1c1.9,0.4,3.9,1,5.9,1c1.7,0,3.4,0.3,5.1,0.2c1.7,0,3.4-0.2,5.1-0.8c1.1-0.4,2.3-0.6,3.5-0.9
		c1.7-0.4,3.4-0.9,5.2-1.4C83,37.8,83.2,37.8,83.7,37.7z"/>
	<path class="st2" d="M113.2,28.6c2.6,0,5.2,0.2,7.8,0.8c2.8,0.7,5.7,1.4,8.4,2.3c1.9,0.6,3.7,1.5,5.5,2.3c3.2,1.4,6.5,2.6,9.8,3.6
		c1.7,0.5,3.5,0.6,5.2,1.1c2.9,0.7,5.8,0.8,8.8,0.8c2.9,0,5.8-0.2,8.7-0.5c2.1-0.2,4.2-0.7,6.2-1.2c2-0.5,3.9-1.2,5.9-1.8
		c2.1-0.7,4.2-1.5,6.3-2.3c0.7-0.2,1.3-0.6,2-0.8c0.2-0.1,0.6,0,0.8,0.1c4.1,3.7,8,7.4,11.2,11.9c2.5,3.6,4.6,7.3,6.1,11.4
		c0.8,2.2,1.4,4.4,1.8,6.7c0.1,0.5-0.1,0.6-0.5,0.8c-2.7,0.6-5.5,1.3-8.2,2c-2.9,0.8-5.8,1.6-8.6,2.5c-2.6,0.8-5.2,1.5-7.8,2.4
		c-2.8,1-5.7,2.1-8.5,3.1c-2,0.8-4.1,1.5-6.1,2.3c-0.9,0.4-1.8,0.8-2.7,1.2c-0.7,0.3-1.2,0.2-1.8-0.3c-3.7-3.2-7.4-6.5-11.1-9.7
		c-4.5-3.9-9-7.8-13.6-11.6c-4.5-3.8-9.1-7.6-13.7-11.3c-2.3-1.8-4.7-3.4-7.5-4.3c-1.6-0.5-3.4-0.7-5.1-0.5c-2.1,0.2-4.1,0.8-6,1.7
		c-1.4,0.7-2.8,1.6-4.1,2.5c-3.3,2.4-6.5,5-9.8,7.4c-1.6,1.2-3.3,2.2-5.2,2.8c-1.6,0.6-3.3,0.6-5,0.5c-1.6-0.1-3.1-0.2-4.5-1
		c0,0,0,0-0.1,0c-2-0.8-2.1-1.6-0.6-3.1c1.6-1.7,3.2-3.4,4.8-5.1c2.6-2.7,5.3-5.4,8-8c2.3-2.2,4.9-4.1,7.8-5.5
		c1.6-0.8,3.3-1.4,5-1.8c2-0.5,4.1-0.9,6.1-1.3C110.2,28.7,111.7,28.7,113.2,28.6z"/>
	<path class="st1" d="M34.9,28.4c0.4-0.3,0.8-0.5,1.1-0.8c3.9-2.5,7.9-4.8,12.1-6.9c3.4-1.7,6.9-3.2,10.5-4.4
		c3.3-1.2,6.6-2.3,10-3.3c2.5-0.8,5.1-1.4,7.7-2c1.9-0.4,3.8-0.8,5.8-1.1c3.4-0.5,6.9-1.1,10.4-1.5c2.8-0.3,5.6-0.6,8.5-0.7
		c4.8-0.1,9.6-0.2,14.4-0.1c2.2,0,4.4,0.2,6.5,0.4c1.8,0.2,3.6,0.3,5.3,0.6c3.9,0.6,7.7,1.1,11.6,1.8c2.4,0.4,4.7,1.1,7,1.6
		c4.5,1,8.8,2.4,13.1,4c3.1,1.2,6.1,2.4,9.1,3.8c3.6,1.6,7,3.5,10.3,5.6c2,1.3,4,2.7,6,4c0.1,0.1,0.2,0.2,0.4,0.4
		c-0.8,0.3-1.6,0.7-2.3,1c-4.3,1.7-8.8,3.1-13.4,3.9c-3.9,0.7-7.8,1.1-11.8,0.9c-3.7-0.3-7.4-0.7-11-1.6c-3.5-0.9-6.8-2.1-10-3.5
		c-2.6-1.1-5.2-2.1-7.9-3.1c-3.8-1.4-7.8-2.2-11.8-2.5c-3-0.3-5.9-0.1-8.9,0.3c-2.4,0.4-4.7,0.9-7,1.6c-4,1.3-7.6,3.3-10.9,5.9
		c-0.6,0.4-1.1,0.6-1.8,0.7c-2.4,0.3-4.7,0.7-7.1,1.2c-2.3,0.5-4.6,1.3-6.9,1.8C71,36.9,68,37.3,65,36.8c-3.3-0.4-6.5-1.2-9.6-1.9
		c-2.1-0.5-4.1-1.1-6.1-1.7c-2.6-0.8-5.1-1.5-7.7-2.3c-2.1-0.7-4.3-1.5-6.4-2.3C35.1,28.6,35.1,28.5,34.9,28.4z"/>
	<path class="st2" d="M68.2,85.9c1-1.3,1.9-2.6,3.2-3.5c2.7-2,5.7-2.2,8.8-1c1.6,0.6,2.5,1.9,3.1,3.5c0.2,0.7,0.4,1.4,0.5,2.1
		c0.2,0.9,0.6,1,1.4,0.4c0.7-0.5,1.5-0.9,2.2-1.4c1.2-0.7,2.6-0.7,3.9-0.4c1.3,0.2,2.5,0.7,3.5,1.6c1.6,1.3,2.3,3,2.4,5
		c0.1,1.7-0.3,3.2-0.7,4.8c-0.1,0.2-0.1,0.4-0.2,0.7c-0.1,0.7,0.2,1.1,0.9,1c0.5-0.1,1-0.2,1.5-0.4c4.5-1.3,8.6,0.7,10.2,4.9
		c1.1,2.9,0.4,5.6-1.6,8c-1.2,1.4-2.6,2.3-4.4,2.6c-1.2,0.2-2.4,0.2-3.7-0.1c-2.3-0.6-3.9-2.1-5.2-4c-0.7-1.1-0.9-2.3-1-3.5
		c0-0.4,0.1-0.9-0.4-1.1c-0.5-0.2-1,0-1.4,0.4c-1.2,1.1-2.6,1.8-4.3,1.7c-2.6-0.2-4.8-1.4-6.2-3.6c-0.4-0.6-0.5-1.4-0.6-2.2
		c-0.1-0.4,0-0.9,0-1.3c0-0.7-0.5-1-1.1-0.7c-0.7,0.3-1.3,0.7-2,1c-1.9,0.8-3.8,0.6-5.6-0.4c-1.9-1.1-3.4-2.6-4-4.7
		c-0.3-1.1-0.3-2.4-0.3-3.7c0-0.4,0.1-0.8,0-1.2c0-0.2-0.2-0.6-0.4-0.7c-0.2-0.1-0.5,0-0.7,0.2c-0.8,0.6-1.6,1.2-2.6,1.5
		c-2.5,0.7-5.2-0.4-6.6-2.2c-1.1-1.4-1.7-3-1.4-4.8c0.2-1.3,0.7-2.5,1.8-3.5c1.3-1.2,2.9-1.9,4.6-1.9c2.4,0.1,4.3,1.2,5.5,3.4
		c0.5,1,0.7,2,0.8,3.1C68.1,85.6,68.1,85.7,68.2,85.9z"/>
</g>
<g>
	<g>
		<path class="st0" d="M271,51.7c0-4.5,0-9,0-13.4c0-2.7-2-5.8-5-6.6c-1-0.3-2-0.2-3-0.2c-2.3,0-4.2,1-5.8,2.6
			c-1.1,1.1-1.6,2.5-1.7,3.9c-0.1,3.1-0.2,6.1-0.2,9.2c0,6.1,0,12.3,0,18.4c0,0.5-0.1,0.7-0.6,0.7c-3.1,0-6.3,0-9.4,0
			c-0.5,0-0.7-0.2-0.7-0.7c0-8.3,0-16.6,0-24.9c0-3.3,0.5-6.6,1.9-9.6c1.8-3.8,4.5-6.7,8.3-8.6c3.5-1.7,7.1-2.3,10.9-1.8
			c4.2,0.5,7.8,2.4,10.6,5.6c0.3,0.4,0.5,0.4,0.8,0c1.3-1.5,2.9-2.7,4.6-3.7c2.7-1.4,5.5-2.1,8.5-2.1c2.6,0,5.2,0.5,7.6,1.5
			c3.3,1.3,5.9,3.6,7.8,6.6c2,3.3,2.9,7,2.9,10.9c0,8.7,0,17.3,0,26c0,0.8,0,0.8-0.8,0.8c-3.1,0-6.2,0-9.3,0c-0.5,0-0.6-0.2-0.6-0.6
			c0-8.3,0-16.7,0-25c0-1.6-0.1-3.3-0.7-4.9c-0.9-2.1-2.4-3.6-4.5-4.1c-2.5-0.5-5-0.4-7.3,1.2c-1.8,1.3-3,2.9-3.2,5.1
			c-0.1,1-0.2,2-0.2,3.1c0,8.2,0,16.3,0,24.5c0,0.6-0.2,0.7-0.7,0.7c-3.1,0-6.2,0-9.3,0c-0.5,0-0.7-0.1-0.7-0.7
			C271,60.9,271,56.3,271,51.7C271,51.7,271,51.7,271,51.7z"/>
		<path class="st0" d="M511.4,27.1c0-0.4,0-0.9,0-1.3c0-3.9,0-7.8,0.1-11.7c0.1-2.7,1.5-4.7,3.9-5.9c2.3-1.2,4.8-1.5,7.3-1.4
			c0.3,0,0.4,0.1,0.4,0.4c0,0.7,0,1.3,0,2c0,13.1,0,26.2,0,39.3c0,4.2-1.3,8.1-3.9,11.5c-0.8,1.1-1.8,2.1-2.9,3
			c-1.9,1.5-4.1,2.4-6.4,3.2c-3,1-6.2,1.1-9.3,1c-1.7,0-3.4-0.2-5-0.6c-3.2-0.7-6.2-1.7-8.8-3.8c-2.3-1.8-3.8-4.2-4.9-6.8
			c-1.9-4.3-2.3-8.9-2-13.6c0.2-2.5,0.6-5,1.3-7.4c1.5-5.1,4.2-9.3,9-12c1.8-1,3.8-1.6,5.9-1.9c6-1,10.9,0.8,14.7,5.6
			c0.1,0.2,0.3,0.4,0.4,0.6C511.3,27.1,511.3,27.1,511.4,27.1z M491.8,44.3c0.1,2.4,0.3,5,1.2,7.4c1.3,3.4,3.7,5.6,7.5,6
			c3,0.3,5.6-0.4,7.8-2.6c1.5-1.6,2.4-3.4,2.9-5.5c0.8-4.1,0.8-8.3-0.5-12.3c-0.9-2.8-2.8-4.8-5.6-6c-1.3-0.6-2.7-0.6-4.2-0.5
			c-3.9,0.2-6.4,2.6-7.7,5.6C492.1,38.8,491.9,41.5,491.8,44.3z"/>
		<path class="st0" d="M356.1,54.3c-0.4,1.3-0.9,2.5-1.7,3.6c-1.2,1.7-2.4,3.4-4,4.7c-2,1.5-4.2,2.6-6.5,3.5
			c-1.8,0.7-3.7,0.8-5.6,1.2c-0.5,0.1-1.1,0-1.6,0.1c-2.5,0.2-4.9-0.1-7.2-0.7c-4.6-1.2-8.6-3.3-11.8-6.9c-1.6-1.8-2.6-4-3.3-6.3
			c-1.1-3.6-1.5-7.3-1.2-11c0.3-4.2,1.1-8.3,3.3-11.9c2.2-3.7,5.4-6.3,9.3-8c3.2-1.4,6.7-2,10.1-1.8c4.5,0.2,8.8,1.2,12.5,3.8
			c3,2.1,5.1,4.9,6.6,8.2c1.4,3.2,1.9,6.6,2.1,10.1c0.1,1.4,0,2.8,0,4.2c-0.2,0-0.5,0-0.7,0c-10.2,0-20.5,0-30.7,0
			c-1,0-0.9-0.1-0.8,0.9c0.1,3.3,1.4,6.1,4.1,8.1c1.7,1.2,3.6,1.9,5.7,1.9c1.3,0,2.7,0,4-0.2c2-0.3,3.6-1.4,4.9-2.9
			c0.1-0.2,0.4-0.3,0.7-0.3c3.9,0,7.7,0,11.6,0C355.9,54.3,356,54.3,356.1,54.3z M325,39.5c0.2,0,0.5,0,0.7,0c6.1,0,12.2,0,18.3,0
			c1.2,0,1.3,0.2,1-1.2c-0.3-1.6-0.7-3.2-1.8-4.5c-1.5-1.8-3.3-2.8-5.6-3.4c-2.7-0.6-5.3-0.4-7.7,1C326.8,33.1,325.5,36,325,39.5z"
			/>
		<path class="st0" d="M571.5,43.9c0,1-0.1,2,0,3c0.2,2.1-0.4,4.1-1.1,6.1c-1.1,3.3-3,6.2-5.3,8.8c-1.1,1.2-2.5,2-3.9,2.8
			c-1.9,1-3.8,1.8-5.9,2.2c-2.4,0.4-4.8,0.9-7.2,0.6c-2.3-0.3-4.5-0.5-6.7-1.1c-3.2-0.9-6-2.4-8.3-4.9c-2.2-2.4-3.9-5.1-5-8.2
			c-1.5-4.1-1.9-8.4-1.4-12.7c0.7-6,3.1-11.3,7.8-15.5c2.1-1.9,4.7-3,7.4-3.8c3.9-1.1,7.9-1.2,11.9-0.6c6,0.9,10.8,3.7,14,8.9
			c1.7,2.7,2.8,5.6,3.5,8.7c0.1,0.3,0.1,0.6,0.1,0.9C571.5,40.7,571.5,42.3,571.5,43.9z M559.7,44c0-0.8,0.1-1.5,0-2.2
			c-0.2-2.6-0.6-5.1-2.1-7.3c-1.5-2.2-3.4-3.7-6-4.2c-2.1-0.4-4.3-0.3-6.4,0.5c-3.1,1.3-5,3.7-5.8,6.8c-0.7,2.5-0.8,5.2-0.7,7.8
			c0.1,2.7,0.6,5.4,2.2,7.7c1,1.5,2.1,2.9,3.8,3.5c1.1,0.4,2.2,0.7,3.3,0.9c2.5,0.4,4.8,0,6.9-1.4c1.7-1.1,3-2.7,3.7-4.7
			C559.5,49,559.9,46.5,559.7,44z"/>
		<path class="st0" d="M476.2,42.3c0,3.2,0.2,6.5,0,9.7c-0.5,5.9-3.3,10.4-8.9,12.8c-1.4,0.6-3,0.9-4.4,1.5
			c-1.9,0.7-3.9,0.6-5.9,0.8c-1.2,0.1-2.4,0.2-3.6,0.2c-2.9-0.1-5.8-0.2-8.5-1.2c-3.5-1.3-6-3.6-7.2-7.2c-1.1-3.4-1-6.8,0.2-10.2
			c1.3-3.6,4-5.9,7.6-7.3c2.1-0.8,4.2-1.3,6.5-1.6c2.9-0.4,5.7-0.8,8.6-1.3c1.2-0.2,2.2-0.7,3.1-1.5c1-0.9,1.2-2,1-3.2
			c-0.3-2.1-1.7-3.3-4-3.6c-0.8-0.1-1.5-0.2-2.3-0.3c-2-0.1-3.9,0-5.7,0.9c-1.1,0.5-1.9,1.4-2.3,2.5c-0.3,0.7-0.5,1.5-0.8,2.2
			c-0.1,0.2-0.3,0.3-0.5,0.3c-1.7,0-3.3,0-5,0c-1.6,0-3.3,0-4.9,0c-0.8,0-0.8,0-0.7-0.8c0.2-2.5,0.9-4.9,2.1-7
			c1.4-2.5,3.6-4.3,6.2-5.5c2.4-1.1,4.9-1.6,7.5-1.9c3-0.3,6-0.2,9,0.4c2.2,0.5,4.2,1,6.3,1.9c3.4,1.4,5.5,3.9,6.3,7.5
			c0.3,1.4,0.4,2.7,0.4,4.1C476.3,37.1,476.3,39.7,476.2,42.3C476.3,42.3,476.3,42.3,476.2,42.3z M464.6,44.3c0,0-0.1,0-0.1,0
			c-0.1,0-0.3,0.1-0.4,0.2c-2.2,1.3-4.7,1.7-7.1,2.1c-1.8,0.4-3.7,0.6-5.4,1.5c-1,0.5-1.9,1.1-2.4,2.1c-0.3,0.6-0.5,1.4-0.6,2.1
			c-0.2,1.8,0,3.6,1.5,4.9c1.4,1.2,3.1,1.5,4.8,1.5c1.9,0,3.6-0.7,5.2-1.5c1.8-1,3.1-2.3,3.8-4.2c0.5-1.2,0.6-2.5,0.6-3.7
			C464.6,47.7,464.6,46,464.6,44.3z"/>
		<path class="st0" d="M433.3,37.5c-0.3,0-0.6,0-0.9,0c-3.6,0-7.2,0-10.9,0c-0.5,0-0.7-0.1-0.8-0.6c-0.2-1.1-0.5-2.1-1.1-3
			c-1.2-1.9-3-3-5.2-3.3c-1.7-0.2-3.3-0.2-4.9,0.3c-0.9,0.3-1.7,0.7-2.4,1.2c-1.5,1.1-2.6,2.5-3.1,4.2c-1.2,3.9-1.4,7.8-0.9,11.8
			c0.2,1.2,0.4,2.3,0.8,3.5c0.8,2.4,2.4,4.2,4.6,5.3c1.3,0.6,2.7,0.7,4.1,0.7c0.7,0,1.5-0.1,2.2-0.2c3.2-0.7,4.9-2.8,5.5-5.9
			c0.1-0.6,0.2-1.1,0.3-1.8c4.2,0,8.3,0,12.6,0c-0.2,1-0.4,2.1-0.6,3c-0.8,2.8-2.3,5.3-4.1,7.6c-1.9,2.4-4.3,3.9-7.1,5.1
			c-2.2,0.9-4.4,1.3-6.7,1.6c-2.9,0.4-5.6,0-8.4-0.5c-3.3-0.5-6.3-1.7-8.8-3.9c-2.4-2-4.1-4.5-5.3-7.3c-1.8-4.4-2.3-9-2-13.8
			c0.3-3.5,1-6.9,2.6-10c2.1-4.3,5.4-7.4,9.8-9.2c3.5-1.4,7.2-2,10.9-1.9c2.7,0.1,5.4,0.6,8,1.4c2.4,0.8,4.7,1.9,6.5,3.6
			c2.1,1.9,3.4,4.4,4.2,7.1c0.4,1.4,0.6,2.8,0.9,4.2C433.3,37.1,433.3,37.2,433.3,37.5z"/>
		<path class="st0" d="M388.3,32.4c-0.4,0-0.8-0.1-1.2-0.1c-2.2-0.1-4.4,0-6.5,0.6c-3.1,1-5.3,3-5.9,6.2c-0.4,1.9-0.4,4-0.5,5.9
			c-0.1,6.4,0,12.8,0,19.2c0,0.5,0,0.9,0,1.4c0,0.4-0.1,0.6-0.5,0.6c-3.5,0-7.1,0-10.6,0c-0.4,0-0.5-0.1-0.5-0.5
			c0-7.7,0-15.4,0-23.1c0.1-5.5,1.7-10.5,5.3-14.7c2.1-2.4,4.7-4.1,7.6-5.3c3.9-1.5,8-2,12.1-2c0.6,0,0.8,0.1,0.8,0.7
			c0,3.6,0,7.2,0,10.9C388.3,32.2,388.3,32.3,388.3,32.4z"/>
	</g>
</g>
<g>
	<g>
		<path class="st1" d="M348.7,150.4c0.3-0.1,0.5-0.1,0.8-0.2c-3.7-0.6-6.8-2.2-9.5-4.8c-2.6-2.6-4.2-5.6-5.2-9.2c4.3,0,8.4,0,12.5,0
			c0.5,1.1,1.4,1.9,2.4,2.6c1.1,0.8,2.3,1.4,3.7,1.7c1.2,0.2,2.4,0.3,3.7-0.2c0.8-0.3,1.7-0.5,2.4-1c0.7-0.6,1.4-1.2,2.1-1.8
			c0.2-0.2,0.3-0.7,0.5-0.9c0.4-0.2,0.4-0.6,0.6-0.9c0.4-0.7,0.7-1.4,0.9-2.2c0.1-0.5,0.4-1.1,0.5-1.7c0.1-1,0.2-2,0.3-3
			c0-0.6,0-1.3,0-1.9c-0.5,1.1-1.4,2-2.3,2.7c-0.9,0.7-1.7,1.6-3,1.9c0,0.3-0.1,0.4-0.6,0.4c-0.3,0-0.6,0.2-0.8,0.3
			c-0.1,0-0.2,0.1-0.2,0.1c-0.6,0.1-1.3,0.2-1.9,0.3c-0.5,0.1-1,0.1-1.5,0.1c-1.9,0.1-3.8,0-5.7-0.5c-1-0.2-1.9-0.7-2.8-1.1
			c-1.5-0.6-2.7-1.5-3.9-2.5c-1.5-1.2-2.6-2.7-3.7-4.1c-0.4-0.5-0.6-1.1-1-1.7c-0.2-0.2-0.4-0.5-0.6-0.7c0.1-0.7,0.1-0.7-0.2-0.7
			c-0.2-0.5-0.5-0.9-0.6-1.4c-0.2-0.7-0.3-1.5-0.5-2.2c-0.4-1.2-0.6-2.5-0.6-3.7c-0.1-1.9-0.3-3.9-0.2-5.8c0-1.8,0.4-3.6,0.4-5.4
			c0-0.7,0.5-1.2,0.5-1.9c0-0.5,0.1-0.9,0.3-1.3c0.3-0.6,0.4-1.3,0.6-2c0.1-0.4,0.3-0.7,0.5-1.1c0.8-1.4,1.5-2.8,2.5-4.1
			c0.7-0.9,1.4-1.7,2.3-2.4c1.1-0.8,2.3-1.4,3.5-2.1c0.6-0.3,1.2-0.6,1.8-0.6c0.1,0,0.2-0.2,0.2-0.3c0.7-0.2,1.4-0.3,2.1-0.5
			c0.2,0,0.4,0,0.6-0.1c0.6-0.1,1.2-0.3,1.7-0.4c0.2,0,0.3-0.1,0.5-0.1c2.3,0,4.5,0,6.8,0c0.3,0,0.5,0.1,0.8,0.2
			c0.3,0.1,0.5,0.2,0.8,0.2c0.6,0.1,1.2,0.2,1.8,0.3c1.5,0.3,2.9,0.9,4.3,1.6c1.5,0.8,2.8,1.8,4,2.8c1.4,1.1,2.4,2.5,3.3,4
			c0.4,0.6,0.5,1.3,0.9,1.8c0.7,1,0.6,2.4,1.2,3.4c0,0.1,0.1,0.1,0.1,0.2c0.2,1.8,0.5,3.6,0.5,5.4c0,8.2,0,16.4,0,24.5
			c0,1.1-0.2,2.2-0.4,3.3c-0.2,1.1-0.4,2.2-0.8,3.2c-0.4,1.1-1,2.2-1.4,3.4c-0.5,1.2-1.4,2.2-2.1,3.3c-0.5,0.8-1.2,1.6-1.9,2.2
			c-0.1,0.1-0.3,0-0.4,0.1c-0.1,0.1-0.2,0.3-0.2,0.3c-0.4,0.3-0.8,0.5-1.2,0.8c-0.5,0.4-1,0.8-1.6,1.1c-1.3,0.6-2.6,1.4-4.1,1.5
			c-0.1,0-0.2,0.2-0.3,0.3C357.4,150.4,353.1,150.4,348.7,150.4z M351.1,97.4C351,97.4,351,97.4,351.1,97.4c-0.6,0.4-1.2,0.6-1.7,1
			c-1.6,1.2-2.2,3-2.8,4.8c-0.4,1.1-0.7,2.4-0.8,3.5c-0.1,2.8-0.3,5.5,0.2,8.3c0.3,1.4,0.7,2.8,1.3,4.1c1.1,2.2,3,3.5,5.4,3.8
			c2,0.2,4,0.5,5.8-0.6c0.6-0.3,1.2-0.5,1.7-0.9c0.7-0.6,1.4-1.4,1.9-2.1c0.5-0.7,0.9-1.6,1.2-2.4c0.3-0.9,0.5-1.8,0.6-2.8
			c0.6-3,0.4-6-0.1-9c0-0.1-0.1-0.2-0.1-0.4c-0.1-0.2-0.2-0.5-0.3-0.7c-0.1-0.3,0.1-0.8-0.4-0.9c0,0,0-0.2-0.1-0.3
			c-0.1-0.3-0.1-0.6-0.2-0.8c-0.2-0.3-0.6-0.6-0.6-0.9c-0.2-0.7-0.6-1.3-1.1-1.9c-1.2-1.5-2.8-2.5-4.8-2.6c-1.5-0.1-3-0.3-4.4,0.4
			c-0.1,0.1-0.3,0-0.4,0C351.4,97.2,351.2,97.3,351.1,97.4z"/>
		<path class="st1" d="M256.4,127c0,4.4,0,8.8,0,13.2c0,0.5,0,1,0,1.5c-0.1,1.8-1,3.3-2.4,4.4c-1.2,0.9-2.5,1.2-3.9,1.2
			c-1.6,0-3.1,0-4.7,0c-0.9,0-0.9,0-0.9-0.9c0-11.7,0-23.4,0-35.1c0-1.9,0-3.9,0.1-5.8c0.1-1.8,0.4-3.5,0.7-5.3
			c0.1-0.5,0.3-1,0.5-1.5c1.1-2.9,2.8-5.4,5.2-7.3c1.6-1.3,3.4-2.3,5.3-3.1c2.2-0.8,4.5-1.1,6.8-1.4c1.8-0.2,3.6-0.5,5.4-0.3
			c3.2,0.4,6.4,0.9,9.2,2.6c2.4,1.5,4.3,3.4,5.9,5.7c1.1,1.7,2,3.5,2.7,5.4c0.4,1.4,0.8,2.8,1,4.2c0.2,1.9,0.5,3.9,0.4,5.8
			c-0.1,2.3-0.3,4.5-0.7,6.7c-0.7,4-2.4,7.6-5.1,10.6c-1.4,1.6-3.1,2.9-5.1,3.9c-1.8,0.9-3.7,1.2-5.6,1.6c-1.3,0.2-2.5,0.2-3.8,0
			c-1.6-0.3-3.2-0.4-4.7-1.1c-1.8-0.7-3.3-1.7-4.6-3.1c-0.5-0.5-0.9-1.2-1.3-1.8c-0.1-0.1-0.1-0.2-0.2-0.3
			C256.5,126.9,256.4,126.9,256.4,127z M256.4,109.8c-0.1,2.8,0.1,5.4,1.3,7.8c1.6,3.3,4.1,5.4,7.9,5.5c2,0,3.9-0.3,5.6-1.5
			c1.8-1.4,2.9-3.2,3.5-5.2c0.7-2.3,0.9-4.7,0.9-7.2c-0.1-2.4-0.4-4.8-1.4-6.9c-1.2-2.7-3.2-4.7-6.3-5.3c-1.8-0.4-3.6-0.3-5.3,0.3
			c-2.9,1-4.5,3.2-5.4,6C256.6,105.4,256.3,107.7,256.4,109.8z"/>
		<path class="st1" d="M412.5,131.5c0,0.2,0,0.3,0,0.5c-0.1,0-0.1,0-0.2,0.1c-0.5,0.1-1.1,0.2-1.6,0.3c-0.8,0.2-1.6,0.4-2.4,0.5
			c-0.9,0.2-1.9,0.3-2.8,0.4c-0.2,0-0.4,0-0.6,0.1c-1.7,0-3.3,0.1-5,0c-0.6,0-1.1-0.3-1.7-0.4c-1.1-0.2-2.3-0.2-3.4-0.6
			c-0.6-0.2-1.3-0.2-1.8-0.7c-0.6-0.5-1.4-0.6-2.1-1c-2.1-1.1-3.9-2.5-5.3-4.3c-0.7-1-1.5-1.9-2.1-3c-0.4-0.7-0.7-1.6-1.1-2.3
			c-0.2-0.4-0.5-0.7-0.4-1.2c0-0.1-0.3-0.1-0.3-0.1c-0.3-1-0.5-1.9-0.7-2.9c-0.6-2.5-1-4.9-0.9-7.5c0.1-1.3,0.1-2.6,0.1-3.9
			c0-0.1,0.1-0.3,0.2-0.4c0.1-0.2,0.2-0.4,0.2-0.6c0-1.2,0.4-2.3,0.8-3.4c0,0,0-0.1,0-0.1c0.1-1.2,0.8-2.1,1.3-3.1
			c0.5-1,1.1-2.1,1.7-3c1.1-1.6,2.3-3.1,3.9-4.3c1.3-1,2.6-1.8,4.1-2.5c0.5-0.2,1.1-0.2,1.5-0.5c0.7-0.6,1.6-0.2,2.3-0.8
			c0.2-0.2,0.7-0.1,1.1-0.1c0.1,0,0.2,0,0.3,0c0.4-0.6,1-0.4,1.5-0.4c2.7,0,5.3,0,8,0c0.2,0,0.5,0.1,0.7,0.2
			c0.2,0.1,0.4,0.2,0.6,0.2c1,0.2,1.9,0.3,2.9,0.5c0.4,0.1,0.8,0.3,1.2,0.5c2.4,1.1,4.7,2.3,6.5,4.3c1.4,1.5,2.6,3.1,3.5,4.9
			c0.3,0.7,0.8,1.4,1.1,2.2c0.3,0.8,0.6,1.5,0.8,2.3c0.1,0.4,0.3,0.9,0.3,1.3c0.3,1.6,0.6,3.1,0.8,4.7c0.2,1.7,0.3,3.4-0.1,5.1
			c-0.1,0.5-0.2,1-0.2,1.5c-0.2,1.1-0.3,2.2-0.5,3.3c-0.2,0.7-0.5,1.4-0.8,2c-0.3,0.8-0.6,1.6-1,2.3c-0.9,1.5-1.7,3.2-2.9,4.5
			c-1.5,1.8-3.2,3.4-5.4,4.5c-0.4,0.2-0.8,0.5-1.2,0.7C413.2,131.6,412.9,131.5,412.5,131.5z M402.9,96.2c-0.9,0.1-1.9,0.3-2.8,0.4
			c-1.7,0.3-3,1.2-4.2,2.4c-1.3,1.4-2.2,3-2.6,4.8c-0.3,1.2-0.7,2.3-0.7,3.5c-0.1,2.1-0.2,4.2,0.3,6.3c0.4,1.6,0.6,3.1,1.4,4.6
			c0.9,1.7,2.1,3.2,3.9,4.1c1.4,0.7,2.9,1,4.4,1.1c1.1,0.1,2.2-0.2,3.2-0.4c2.6-0.5,4.3-2.2,5.6-4.4c0.5-0.8,0.9-1.5,1-2.5
			c0.1-0.9,0.5-1.8,0.6-2.6c0.1-0.6,0.1-1.3,0.1-2c0-2.5,0.2-5-0.5-7.4c-0.1-0.5-0.5-1-0.4-1.5c0,0,0-0.1,0-0.1
			c-0.5-0.8-0.9-1.6-1.4-2.4c-0.5-0.9-1.2-1.6-2.1-2.1c-0.3-0.2-0.8-0.2-1-0.5c-0.4-0.6-1.1-0.6-1.6-0.8
			C405.1,96.4,404,96.4,402.9,96.2z"/>
		<path class="st1" d="M319.3,131.7c0,0,0,0.1,0,0.2c0,0-0.1,0-0.1,0.1c-0.6,0.1-1.2,0.3-1.8,0.4c-0.7,0.1-1.5,0.3-2.2,0.4
			c-3.8,0.8-7.6,0.7-11.4,0.6c-0.8,0-1.6,0-2.3-0.4c-0.2-0.1-0.5-0.2-0.7-0.1c-0.8,0.1-1.5-0.3-2.3-0.6c-1.3-0.4-2.5-1.2-3.6-2
			c-1.3-1-2.4-2.3-3.1-3.8c-0.7-1.5-1-3-1.2-4.7c-0.3-1.8-0.1-3.7,0.3-5.5c0.5-2.2,1.5-4.3,3.1-5.9c1.6-1.6,3.6-2.8,5.8-3.5
			c0.6-0.2,1.2-0.5,1.9-0.7c0,0,0.1,0,0.1,0c1.4-0.2,2.8-0.5,4.2-0.6c2.2-0.3,4.5-0.5,6.7-0.8c0.1,0,0.2-0.1,0.3-0.2
			c0.2-0.1,0.3-0.2,0.5-0.2c1.9-0.1,3.5-0.7,4.5-2.4c0.2-0.4,0.2-1,0.2-1.5c0.1-2.4-1.9-3.8-3.9-4c-0.4,0-0.8-0.2-1.1-0.2
			c-1.6-0.1-3.2-0.2-4.9,0.2c-0.9,0.2-1.7,0.4-2.4,0.9c-1.1,0.9-1.9,2-2.1,3.5c-0.1,0.4-0.3,0.8-0.5,1.2c0,0.1-0.2,0.1-0.3,0.2
			c-0.2,0-0.4,0-0.6,0c-3.2,0-6.4,0-9.7,0c-0.8,0-0.8,0-0.7-0.8c0.2-1.2,0.4-2.3,0.6-3.5c0.1-0.4-0.1-0.9,0.5-1.2c0,0,0-0.1,0-0.1
			c0.1-1.5,1.1-2.7,1.9-3.9c0.8-1.2,1.9-2.2,3.1-3c1.1-0.8,2.3-1.2,3.6-1.8c0.6-0.3,1.3-0.2,1.8-0.5c1-0.5,2.1-0.3,3.1-0.6
			c1.9-0.4,3.8-0.2,5.6-0.2c1.8,0,3.7,0.1,5.4,0.5c3.2,0.7,6.4,1.6,8.9,3.9c1.3,1.2,2.1,2.7,2.7,4.4c0.5,1.5,0.6,3.1,0.6,4.7
			c0,5.6,0,11.3,0,16.9c0,0.9,0,1.7-0.1,2.6c-0.1,0.7-0.3,1.4-0.5,2.1c-0.8,2.6-2.3,4.9-4.4,6.7c-1.2,1-2.5,1.7-3.8,2.3
			C320.4,131.3,319.9,131.5,319.3,131.7z M318.1,110.6c-0.1,0.1-0.2,0.1-0.3,0.2c-0.8,0.4-1.5,0.9-2.3,1.2c-0.8,0.3-1.8,0.3-2.6,0.6
			c-1.3,0.3-2.6,0.5-3.9,0.8c-1.5,0.3-3,0.7-4.3,1.5c-1.3,0.7-2.2,1.9-2.3,3.4c-0.1,0.9-0.1,1.9,0.1,2.8c0.1,0.6,0.3,1.2,0.6,1.6
			c0.9,1.4,2.4,2,4,2.2c0.9,0.1,1.9,0.2,2.8-0.3c0.7-0.4,1.7-0.2,2.5-0.5c1.4-0.6,2.7-1.4,3.8-2.6c1.2-1.3,1.6-3,1.8-4.7
			C318.2,114.8,318,112.7,318.1,110.6z"/>
	</g>
</g>
</svg>
